{
  "source": "C:\\Users\\Peter\\Desktop\\stuff\\MIUN\\quantitative_research\\video_compression\\videos\\UVG\\ShakeNDry_1920x1080_120fps_420_8bit_YUV.y4m",
  "output": "C:\\Users\\Peter\\Desktop\\stuff\\MIUN\\quantitative_research\\video_compression\\compressed_videos\\UVG\\h264\\4\\ShakeNDry_1920x1080_120fps_420_8bit_YUV_h264.mp4",
  "codec": "h264",
  "ok": "[yuv4mpegpipe @ 000001799bf66600] Stream #0: not enough frames to estimate rate; consider increasing probesize\nInput #0, yuv4mpegpipe, from 'C:\\Users\\Peter\\Desktop\\stuff\\MIUN\\quantitative_research\\video_compression\\videos\\UVG\\ShakeNDry_1920x1080_120fps_420_8bit_YUV.y4m':\n  Duration: 00:00:02.50, start: 0.000000, bitrate: 2985989 kb/s\n  Stream #0:0: Video: rawvideo (I420 / 0x30323449), yuv420p(progressive), 1920x1080, 120 fps, 120 tbr, 120 tbn\n[out#0/mp4 @ 000001799bf6a240] Codec AVOption b:a (set bitrate (in bits/s)) has not been used for any stream. The most likely reason is either wrong type (e.g. a video option with no video streams) or that it is a private option of some decoder which was not actually used for any stream.\nStream mapping:\n  Stream #0:0 -> #0:0 (rawvideo (native) -> h264 (libx264))\nPress [q] to stop, [?] for help\n[libx264 @ 000001799bf6ca80] using cpu capabilities: MMX2 SSE2Fast SSSE3 SSE4.2 AVX FMA3 BMI2 AVX2\n[libx264 @ 000001799bf6ca80] profile High, level 5.1, 4:2:0, 8-bit\n[libx264 @ 000001799bf6ca80] 264 - core 165 r3222 b35605a - H.264/MPEG-4 AVC codec - Copyleft 2003-2025 - http://www.videolan.org/x264.html - options: cabac=1 ref=5 deblock=1:0:0 analyse=0x3:0x113 me=hex subme=8 psy=1 psy_rd=1.00:0.00 mixed_ref=1 me_range=16 chroma_me=1 trellis=2 8x8dct=1 cqm=0 deadzone=21,11 fast_pskip=1 chroma_qp_offset=-2 threads=18 lookahead_threads=3 sliced_threads=0 nr=0 decimate=1 interlaced=0 bluray_compat=0 constrained_intra=0 bframes=3 b_pyramid=2 b_adapt=1 b_bias=0 direct=3 weightb=1 open_gop=0 weightp=2 keyint=250 keyint_min=25 scenecut=40 intra_refresh=0 rc_lookahead=50 rc=cbr mbtree=1 bitrate=4000 ratetol=1.0 qcomp=0.60 qpmin=0 qpmax=69 qpstep=4 vbv_maxrate=4000 vbv_bufsize=4000 nal_hrd=none filler=0 ip_ratio=1.40 aq=1:1.00\nOutput #0, mp4, to 'C:\\Users\\Peter\\Desktop\\stuff\\MIUN\\quantitative_research\\video_compression\\compressed_videos\\UVG\\h264\\4\\ShakeNDry_1920x1080_120fps_420_8bit_YUV_h264.mp4':\n  Metadata:\n    encoder         : Lavf62.3.100\n  Stream #0:0: Video: h264 (avc1 / 0x31637661), yuv420p(tv, progressive), 1920x1080, q=2-31, 4000 kb/s, 120 fps, 15360 tbn\n    Metadata:\n      encoder         : Lavc62.11.100 libx264\n    Side data:\n      cpb: bitrate max/min/avg: 4000000/0/4000000 buffer size: 4000000 vbv_delay: N/A\nframe=    0 fps=0.0 q=0.0 size=       0KiB time=N/A bitrate=N/A speed=N/A elapsed=0:00:00.51    \nframe=   12 fps= 12 q=46.0 size=       0KiB time=00:00:00.08 bitrate=   4.6kbits/s speed=0.081x elapsed=0:00:01.02    \nframe=   52 fps= 34 q=40.0 size=       0KiB time=00:00:00.41 bitrate=   0.9kbits/s speed=0.27x elapsed=0:00:01.54    \nframe=   84 fps= 41 q=40.0 size=     256KiB time=00:00:00.68 bitrate=3069.6kbits/s speed=0.33x elapsed=0:00:02.06    \nframe=  124 fps= 48 q=40.0 size=     256KiB time=00:00:01.01 bitrate=2063.1kbits/s speed=0.394x elapsed=0:00:02.57    \nframe=  164 fps= 53 q=39.0 size=     512KiB time=00:00:01.35 bitrate=3107.2kbits/s speed=0.436x elapsed=0:00:03.09    \nframe=  204 fps= 57 q=38.0 size=     512KiB time=00:00:01.68 bitrate=2491.9kbits/s speed=0.467x elapsed=0:00:03.60    \nframe=  233 fps= 56 q=38.0 size=     512KiB time=00:00:01.92 bitrate=2179.1kbits/s speed=0.466x elapsed=0:00:04.12    \nframe=  287 fps= 62 q=-1.0 size=     768KiB time=00:00:02.37 bitrate=2649.2kbits/s speed=0.512x elapsed=0:00:04.63    \n[mp4 @ 000001799bf6a340] Starting second pass: moving the moov atom to the beginning of the file\n[out#0/mp4 @ 000001799bf6a240] video:998KiB audio:0KiB subtitle:0KiB other streams:0KiB global headers:0KiB muxing overhead: 0.436023%\nframe=  300 fps= 63 q=-1.0 Lsize=    1002KiB time=00:00:02.48 bitrate=3305.9kbits/s speed=0.524x elapsed=0:00:04.73    \n[libx264 @ 000001799bf6ca80] frame I:2     Avg QP:35.27  size: 63860\n[libx264 @ 000001799bf6ca80] frame P:76    Avg QP:35.82  size:  6324\n[libx264 @ 000001799bf6ca80] frame B:222   Avg QP:40.41  size:  1859\n[libx264 @ 000001799bf6ca80] consecutive B-frames:  1.3%  0.0%  0.0% 98.7%\n[libx264 @ 000001799bf6ca80] mb I  I16..4: 20.7% 74.4%  4.9%\n[libx264 @ 000001799bf6ca80] mb P  I16..4:  0.3%  1.1%  0.0%  P16..4: 18.4%  1.3%  5.5%  0.0%  0.0%    skip:73.4%\n[libx264 @ 000001799bf6ca80] mb B  I16..4:  0.0%  0.1%  0.0%  B16..8: 14.5%  0.5%  0.0%  direct: 0.3%  skip:84.7%  L0:30.1% L1:69.6% BI: 0.4%\n[libx264 @ 000001799bf6ca80] 8x8 transform intra:75.6% inter:76.9%\n[libx264 @ 000001799bf6ca80] direct mvs  spatial:95.5% temporal:4.5%\n[libx264 @ 000001799bf6ca80] coded y,uvDC,uvAC intra: 55.5% 47.9% 14.7% inter: 2.0% 1.3% 0.0%\n[libx264 @ 000001799bf6ca80] i16 v,h,dc,p: 27% 23%  8% 43%\n[libx264 @ 000001799bf6ca80] i8 v,h,dc,ddl,ddr,vr,hd,vl,hu:  4%  5%  3% 10% 19% 14% 22%  9% 13%\n[libx264 @ 000001799bf6ca80] i4 v,h,dc,ddl,ddr,vr,hd,vl,hu:  3%  4%  1% 10% 19% 13% 23%  9% 18%\n[libx264 @ 000001799bf6ca80] i8c dc,h,v,p: 54% 24% 10% 12%\n[libx264 @ 000001799bf6ca80] Weighted P-Frames: Y:0.0% UV:0.0%\n[libx264 @ 000001799bf6ca80] ref P L0: 58.0% 18.7% 12.5%  4.9%  5.9%\n[libx264 @ 000001799bf6ca80] ref B L0: 75.1% 15.8%  7.0%  2.2%\n[libx264 @ 000001799bf6ca80] ref B L1: 92.5%  7.5%\n[libx264 @ 000001799bf6ca80] kb/s:3267.12\n",
  "seconds": 4.869187593460083,
  "probe_out": {}
}